<?xml version="1.0" encoding="UTF-8"?>
<svg id="Logo" xmlns="http://www.w3.org/2000/svg" version="1.1" viewBox="0 0 16 16">
  <defs>
    <style>
      .cls-1 {
        fill: #d8d8d8;
        stroke-width: 0px;
      }
    </style>
  </defs>
  <path class="cls-1" d="M6.49,3.33l-.03,10.06h-.76L1.5,4l.06,7.84c0,.69.32,1.12.68,1.43v.12H.01v-.12c.4-.32.59-.74.59-1.43l-.06-7.67C.55,3.74.39,3.17,0,2.86v-.12h2.27l.15.3,3.45,7.88V3.08"/>
  <path class="cls-1" d="M11.18,5.79l1.24,5.53,1.98-6.87c.18-.68-.01-1.3-.2-1.59v-.12h1.8v.12c-.45.32-.78,1.09-1.06,2.13l-2.25,8.4h-.6l-1.3-5.75-1.7,5.75h-.11l-2.65-8.53c-.31-1-.49-1.71-.97-1.99v-.12h2.22v.12c-.32.23-.34.92-.14,1.59l1.71,6.66,1.15-3.84-.75-2.42c-.31-1-.49-1.71-.97-1.99v-.12h2.22v.12c-.32.23-.34.92-.14,1.59l.25.8.24-.8c.2-.68-.01-1.3-.2-1.59v-.12h1.68v.12"/>
</svg>